# This file uses centimeters as units for non-parametric coordinates.

mtllib Spike4.mtl
g default
v 1.068088 0.000235 -1.387730
v 1.061733 0.000235 -1.400202
v 1.051835 0.000235 -1.410100
v 1.039363 0.000235 -1.416455
v 1.025538 0.000235 -1.418644
v 1.011713 0.000235 -1.416455
v 0.999241 0.000235 -1.410100
v 0.989343 0.000235 -1.400202
v 0.982988 0.000235 -1.387730
v 0.980798 0.000235 -1.373905
v 0.982988 0.000235 -1.360080
v 0.989343 0.000235 -1.347608
v 0.999241 0.000235 -1.337710
v 1.011713 0.000235 -1.331355
v 1.025538 0.000235 -1.329165
v 1.039363 0.000235 -1.331355
v 1.051835 0.000235 -1.337710
v 1.061733 0.000235 -1.347608
v 1.068088 0.000235 -1.360080
v 1.070277 0.000235 -1.373905
v 1.025538 0.139260 -1.373905
vt 0.737764 0.172746
vt 0.702254 0.103054
vt 0.646946 0.047746
vt 0.577254 0.012236
vt 0.500000 -0.000000
vt 0.422746 0.012236
vt 0.353054 0.047746
vt 0.297746 0.103054
vt 0.262236 0.172746
vt 0.250000 0.250000
vt 0.262236 0.327254
vt 0.297746 0.396946
vt 0.353054 0.452254
vt 0.422746 0.487764
vt 0.500000 0.500000
vt 0.577254 0.487764
vt 0.646946 0.452254
vt 0.702254 0.396946
vt 0.737764 0.327254
vt 0.750000 0.250000
vt 0.250000 0.500000
vt 0.275000 0.500000
vt 0.300000 0.500000
vt 0.325000 0.500000
vt 0.350000 0.500000
vt 0.375000 0.500000
vt 0.400000 0.500000
vt 0.425000 0.500000
vt 0.450000 0.500000
vt 0.475000 0.500000
vt 0.500000 0.500000
vt 0.525000 0.500000
vt 0.550000 0.500000
vt 0.575000 0.500000
vt 0.600000 0.500000
vt 0.625000 0.500000
vt 0.650000 0.500000
vt 0.675000 0.500000
vt 0.700000 0.500000
vt 0.725000 0.500000
vt 0.750000 0.500000
vt 0.500000 1.000000
vn 0.000000 -1.000000 0.000000
vn 0.000000 -1.000000 0.000000
vn 0.000000 -1.000000 0.000000
vn 0.000000 -1.000000 0.000000
vn 0.000000 -1.000000 0.000000
vn 0.000000 -1.000000 0.000000
vn 0.000000 -1.000000 0.000000
vn 0.000000 -1.000000 0.000000
vn 0.000000 -1.000000 0.000000
vn 0.000000 -1.000000 0.000000
vn 0.000000 -1.000000 0.000000
vn 0.000000 -1.000000 0.000000
vn 0.000000 -1.000000 0.000000
vn 0.000000 -1.000000 0.000001
vn 0.000000 -1.000000 0.000000
vn 0.000000 -1.000000 0.000000
vn 0.000000 -1.000000 0.000000
vn 0.000000 -1.000000 0.000000
vn 0.000000 -1.000000 0.000000
vn 0.000000 -1.000000 0.000000
vn 0.905333 0.306338 -0.294159
vn 0.770122 0.306338 -0.559526
vn -0.000003 1.000000 0.000007
vn 0.559526 0.306338 -0.770122
vn 0.294160 0.306338 -0.905332
vn -0.000000 0.306338 -0.951923
vn -0.294160 0.306338 -0.905332
vn -0.559526 0.306338 -0.770121
vn -0.770122 0.306338 -0.559526
vn -0.905332 0.306338 -0.294160
vn -0.951923 0.306338 -0.000000
vn -0.905332 0.306338 0.294160
vn -0.770122 0.306338 0.559526
vn -0.559526 0.306338 0.770122
vn -0.294160 0.306338 0.905332
vn 0.000000 0.306338 0.951923
vn 0.294160 0.306338 0.905332
vn 0.559526 0.306338 0.770122
vn 0.770122 0.306338 0.559526
vn 0.905332 0.306338 0.294160
vn 0.951923 0.306338 0.000001
s 1
g pCone7
usemtl initialShadingGroup
f 1/1/1 20/20/2 2/2/3
f 20/20/2 19/19/4 2/2/3
f 19/19/4 18/18/5 2/2/3
f 18/18/5 17/17/6 2/2/3
f 17/17/6 16/16/7 2/2/3
f 16/16/7 15/15/8 2/2/3
f 15/15/8 14/14/9 2/2/3
f 14/14/9 13/13/10 2/2/3
f 13/13/10 12/12/11 2/2/3
f 12/12/11 11/11/12 2/2/3
f 11/11/12 10/10/13 2/2/3
f 10/10/13 9/9/14 2/2/3
f 9/9/14 8/8/15 2/2/3
f 8/8/15 7/7/16 2/2/3
f 7/7/16 6/6/17 2/2/3
f 6/6/17 5/5/18 2/2/3
f 5/5/18 4/4/19 2/2/3
f 4/4/19 3/3/20 2/2/3
s 2
f 1/21/21 2/22/22 21/42/23
f 2/22/22 3/23/24 21/42/23
f 3/23/24 4/24/25 21/42/23
f 4/24/25 5/25/26 21/42/23
f 5/25/26 6/26/27 21/42/23
f 6/26/27 7/27/28 21/42/23
f 7/27/28 8/28/29 21/42/23
f 8/28/29 9/29/30 21/42/23
f 9/29/30 10/30/31 21/42/23
f 10/30/31 11/31/32 21/42/23
f 11/31/32 12/32/33 21/42/23
f 12/32/33 13/33/34 21/42/23
f 13/33/34 14/34/35 21/42/23
f 14/34/35 15/35/36 21/42/23
f 15/35/36 16/36/37 21/42/23
f 16/36/37 17/37/38 21/42/23
f 17/37/38 18/38/39 21/42/23
f 18/38/39 19/39/40 21/42/23
f 19/39/40 20/40/41 21/42/23
f 20/40/41 1/41/21 21/42/23
g default
v 1.068088 0.000235 -1.251960
v 1.061733 0.000235 -1.264432
v 1.051835 0.000235 -1.274330
v 1.039363 0.000235 -1.280684
v 1.025538 0.000235 -1.282874
v 1.011713 0.000235 -1.280684
v 0.999241 0.000235 -1.274330
v 0.989343 0.000235 -1.264432
v 0.982988 0.000235 -1.251960
v 0.980798 0.000235 -1.238135
v 0.982988 0.000235 -1.224309
v 0.989343 0.000235 -1.211837
v 0.999241 0.000235 -1.201940
v 1.011713 0.000235 -1.195585
v 1.025538 0.000235 -1.193395
v 1.039363 0.000235 -1.195585
v 1.051835 0.000235 -1.201940
v 1.061733 0.000235 -1.211837
v 1.068088 0.000235 -1.224309
v 1.070277 0.000235 -1.238135
v 1.025538 0.139260 -1.238135
vt 0.737764 0.172746
vt 0.702254 0.103054
vt 0.646946 0.047746
vt 0.577254 0.012236
vt 0.500000 -0.000000
vt 0.422746 0.012236
vt 0.353054 0.047746
vt 0.297746 0.103054
vt 0.262236 0.172746
vt 0.250000 0.250000
vt 0.262236 0.327254
vt 0.297746 0.396946
vt 0.353054 0.452254
vt 0.422746 0.487764
vt 0.500000 0.500000
vt 0.577254 0.487764
vt 0.646946 0.452254
vt 0.702254 0.396946
vt 0.737764 0.327254
vt 0.750000 0.250000
vt 0.250000 0.500000
vt 0.275000 0.500000
vt 0.300000 0.500000
vt 0.325000 0.500000
vt 0.350000 0.500000
vt 0.375000 0.500000
vt 0.400000 0.500000
vt 0.425000 0.500000
vt 0.450000 0.500000
vt 0.475000 0.500000
vt 0.500000 0.500000
vt 0.525000 0.500000
vt 0.550000 0.500000
vt 0.575000 0.500000
vt 0.600000 0.500000
vt 0.625000 0.500000
vt 0.650000 0.500000
vt 0.675000 0.500000
vt 0.700000 0.500000
vt 0.725000 0.500000
vt 0.750000 0.500000
vt 0.500000 1.000000
vn 0.000000 -1.000000 0.000000
vn 0.000000 -1.000000 0.000000
vn 0.000000 -1.000000 0.000000
vn 0.000000 -1.000000 0.000000
vn 0.000000 -1.000000 0.000000
vn 0.000000 -1.000000 0.000000
vn 0.000000 -1.000000 0.000000
vn 0.000000 -1.000000 0.000000
vn 0.000000 -1.000000 0.000000
vn 0.000000 -1.000000 0.000000
vn 0.000000 -1.000000 0.000000
vn 0.000000 -1.000000 0.000000
vn 0.000000 -1.000000 0.000000
vn 0.000000 -1.000000 0.000001
vn 0.000000 -1.000000 0.000000
vn 0.000000 -1.000000 0.000000
vn 0.000000 -1.000000 0.000000
vn 0.000000 -1.000000 0.000000
vn 0.000000 -1.000000 0.000000
vn 0.000000 -1.000000 0.000000
vn 0.905333 0.306338 -0.294159
vn 0.770122 0.306338 -0.559526
vn -0.000003 1.000000 0.000007
vn 0.559526 0.306338 -0.770122
vn 0.294160 0.306338 -0.905332
vn -0.000000 0.306338 -0.951923
vn -0.294160 0.306338 -0.905332
vn -0.559526 0.306338 -0.770121
vn -0.770122 0.306338 -0.559526
vn -0.905332 0.306338 -0.294160
vn -0.951923 0.306338 -0.000000
vn -0.905332 0.306338 0.294160
vn -0.770122 0.306338 0.559526
vn -0.559526 0.306338 0.770122
vn -0.294160 0.306338 0.905332
vn 0.000000 0.306338 0.951923
vn 0.294160 0.306338 0.905332
vn 0.559526 0.306338 0.770122
vn 0.770122 0.306338 0.559526
vn 0.905332 0.306338 0.294160
vn 0.951923 0.306338 0.000001
s 1
g pCone8
usemtl initialShadingGroup
f 22/43/42 41/62/43 23/44/44
f 41/62/43 40/61/45 23/44/44
f 40/61/45 39/60/46 23/44/44
f 39/60/46 38/59/47 23/44/44
f 38/59/47 37/58/48 23/44/44
f 37/58/48 36/57/49 23/44/44
f 36/57/49 35/56/50 23/44/44
f 35/56/50 34/55/51 23/44/44
f 34/55/51 33/54/52 23/44/44
f 33/54/52 32/53/53 23/44/44
f 32/53/53 31/52/54 23/44/44
f 31/52/54 30/51/55 23/44/44
f 30/51/55 29/50/56 23/44/44
f 29/50/56 28/49/57 23/44/44
f 28/49/57 27/48/58 23/44/44
f 27/48/58 26/47/59 23/44/44
f 26/47/59 25/46/60 23/44/44
f 25/46/60 24/45/61 23/44/44
s 2
f 22/63/62 23/64/63 42/84/64
f 23/64/63 24/65/65 42/84/64
f 24/65/65 25/66/66 42/84/64
f 25/66/66 26/67/67 42/84/64
f 26/67/67 27/68/68 42/84/64
f 27/68/68 28/69/69 42/84/64
f 28/69/69 29/70/70 42/84/64
f 29/70/70 30/71/71 42/84/64
f 30/71/71 31/72/72 42/84/64
f 31/72/72 32/73/73 42/84/64
f 32/73/73 33/74/74 42/84/64
f 33/74/74 34/75/75 42/84/64
f 34/75/75 35/76/76 42/84/64
f 35/76/76 36/77/77 42/84/64
f 36/77/77 37/78/78 42/84/64
f 37/78/78 38/79/79 42/84/64
f 38/79/79 39/80/80 42/84/64
f 39/80/80 40/81/81 42/84/64
f 40/81/81 41/82/82 42/84/64
f 41/82/82 22/83/62 42/84/64
g default
v 1.068487 0.000235 -1.115823
v 1.062132 0.000235 -1.128295
v 1.052235 0.000235 -1.138193
v 1.039763 0.000235 -1.144548
v 1.025937 0.000235 -1.146738
v 1.012112 0.000235 -1.144548
v 0.999640 0.000235 -1.138193
v 0.989742 0.000235 -1.128295
v 0.983387 0.000235 -1.115823
v 0.981198 0.000235 -1.101998
v 0.983387 0.000235 -1.088173
v 0.989742 0.000235 -1.075701
v 0.999640 0.000235 -1.065803
v 1.012112 0.000235 -1.059448
v 1.025937 0.000235 -1.057259
v 1.039763 0.000235 -1.059448
v 1.052235 0.000235 -1.065803
v 1.062132 0.000235 -1.075701
v 1.068487 0.000235 -1.088173
v 1.070677 0.000235 -1.101998
v 1.025937 0.139260 -1.101998
vt 0.737764 0.172746
vt 0.702254 0.103054
vt 0.646946 0.047746
vt 0.577254 0.012236
vt 0.500000 -0.000000
vt 0.422746 0.012236
vt 0.353054 0.047746
vt 0.297746 0.103054
vt 0.262236 0.172746
vt 0.250000 0.250000
vt 0.262236 0.327254
vt 0.297746 0.396946
vt 0.353054 0.452254
vt 0.422746 0.487764
vt 0.500000 0.500000
vt 0.577254 0.487764
vt 0.646946 0.452254
vt 0.702254 0.396946
vt 0.737764 0.327254
vt 0.750000 0.250000
vt 0.250000 0.500000
vt 0.275000 0.500000
vt 0.300000 0.500000
vt 0.325000 0.500000
vt 0.350000 0.500000
vt 0.375000 0.500000
vt 0.400000 0.500000
vt 0.425000 0.500000
vt 0.450000 0.500000
vt 0.475000 0.500000
vt 0.500000 0.500000
vt 0.525000 0.500000
vt 0.550000 0.500000
vt 0.575000 0.500000
vt 0.600000 0.500000
vt 0.625000 0.500000
vt 0.650000 0.500000
vt 0.675000 0.500000
vt 0.700000 0.500000
vt 0.725000 0.500000
vt 0.750000 0.500000
vt 0.500000 1.000000
vn 0.000000 -1.000000 0.000000
vn 0.000000 -1.000000 0.000000
vn 0.000000 -1.000000 0.000000
vn 0.000000 -1.000000 0.000000
vn 0.000000 -1.000000 0.000000
vn 0.000000 -1.000000 0.000000
vn 0.000000 -1.000000 0.000000
vn 0.000000 -1.000000 0.000000
vn 0.000000 -1.000000 0.000000
vn 0.000000 -1.000000 0.000000
vn 0.000000 -1.000000 0.000000
vn 0.000000 -1.000000 0.000000
vn 0.000000 -1.000000 0.000000
vn 0.000000 -1.000000 0.000001
vn 0.000000 -1.000000 0.000000
vn 0.000000 -1.000000 0.000000
vn 0.000000 -1.000000 0.000000
vn 0.000000 -1.000000 0.000000
vn 0.000000 -1.000000 0.000000
vn 0.000000 -1.000000 0.000000
vn 0.905333 0.306338 -0.294159
vn 0.770122 0.306338 -0.559526
vn -0.000003 1.000000 0.000007
vn 0.559526 0.306338 -0.770122
vn 0.294160 0.306338 -0.905332
vn -0.000000 0.306338 -0.951923
vn -0.294160 0.306338 -0.905332
vn -0.559526 0.306338 -0.770121
vn -0.770122 0.306338 -0.559526
vn -0.905332 0.306338 -0.294160
vn -0.951923 0.306338 -0.000000
vn -0.905332 0.306338 0.294160
vn -0.770122 0.306338 0.559526
vn -0.559526 0.306338 0.770122
vn -0.294160 0.306338 0.905332
vn 0.000000 0.306338 0.951923
vn 0.294160 0.306338 0.905332
vn 0.559526 0.306338 0.770122
vn 0.770122 0.306338 0.559526
vn 0.905332 0.306338 0.294160
vn 0.951923 0.306338 0.000001
s 1
g pCone9
usemtl initialShadingGroup
f 43/85/83 62/104/84 44/86/85
f 62/104/84 61/103/86 44/86/85
f 61/103/86 60/102/87 44/86/85
f 60/102/87 59/101/88 44/86/85
f 59/101/88 58/100/89 44/86/85
f 58/100/89 57/99/90 44/86/85
f 57/99/90 56/98/91 44/86/85
f 56/98/91 55/97/92 44/86/85
f 55/97/92 54/96/93 44/86/85
f 54/96/93 53/95/94 44/86/85
f 53/95/94 52/94/95 44/86/85
f 52/94/95 51/93/96 44/86/85
f 51/93/96 50/92/97 44/86/85
f 50/92/97 49/91/98 44/86/85
f 49/91/98 48/90/99 44/86/85
f 48/90/99 47/89/100 44/86/85
f 47/89/100 46/88/101 44/86/85
f 46/88/101 45/87/102 44/86/85
s 2
f 43/105/103 44/106/104 63/126/105
f 44/106/104 45/107/106 63/126/105
f 45/107/106 46/108/107 63/126/105
f 46/108/107 47/109/108 63/126/105
f 47/109/108 48/110/109 63/126/105
f 48/110/109 49/111/110 63/126/105
f 49/111/110 50/112/111 63/126/105
f 50/112/111 51/113/112 63/126/105
f 51/113/112 52/114/113 63/126/105
f 52/114/113 53/115/114 63/126/105
f 53/115/114 54/116/115 63/126/105
f 54/116/115 55/117/116 63/126/105
f 55/117/116 56/118/117 63/126/105
f 56/118/117 57/119/118 63/126/105
f 57/119/118 58/120/119 63/126/105
f 58/120/119 59/121/120 63/126/105
f 59/121/120 60/122/121 63/126/105
f 60/122/121 61/123/122 63/126/105
f 61/123/122 62/124/123 63/126/105
f 62/124/123 43/125/103 63/126/105
